# xmcd
#
# Track frame offsets: 
#        150
#        5090
#        26960
#        52323
#        76050
#        102700
#        130973
#        153413
#        180845
#        207300
#        242810
#        264740
#        281325
#
# Disc length: 4039 seconds
#
# Revision: 0
# Processed by: cddbd v1.5.2PL0 Copyright (c) Steve Scherf et al.
# Submitted via: ExactAudioCopy v1.3
#
DISCID=b90fc50d
DTITLE=MISIA - MARVELOUS
DYEAR=2001
DGENRE=JPop
TTITLE0=Intro
TTITLE1=Rhythm Reflection
TTITLE2=愛の歌
TTITLE3=SUNNY DAY
TTITLE4=あの夏のままで 
TTITLE5=Nocturne
TTITLE6=Escape
TTITLE7=la la la
TTITLE8=Change for good
TTITLE9=Everything
TTITLE10=時をとめて
TTITLE11=I miss you 〜時を越えて〜 - MISIA and DCT
TTITLE12=Everything Junior Vasquez Remix
EXTD=
EXTT0=
EXTT1=
EXTT2=
EXTT3=
EXTT4=
EXTT5=
EXTT6=
EXTT7=
EXTT8=
EXTT9=
EXTT10=
EXTT11=
EXTT12=
PLAYORDER=
